<?xml version="1.0" encoding="iso-8859-1"?>
<!-- Uploaded to: SVG Repo, www.svgrepo.com, Generator: SVG Repo Mixer Tools -->
<svg fill="#000000" height="800px" width="800px" version="1.1" id="Layer_1" xmlns="http://www.w3.org/2000/svg" xmlns:xlink="http://www.w3.org/1999/xlink" 
	 viewBox="0 0 512 512" xml:space="preserve">
<g>
	<g>
		<g>
			<path d="M481.362,369.112H380.178l-19.36-40.505c-1.343-2.809-4.18-4.598-7.294-4.598h-4.673l-11.849-25.805
				c-1.318-2.87-4.188-4.71-7.346-4.71h-40.807V176.06c34.045-13.211,58.257-46.298,58.257-84.954C347.105,40.871,306.235,0,256,0
				s-91.105,40.871-91.105,91.106c0,38.657,24.212,71.745,58.257,84.954v117.432h-40.807c-3.159,0-6.029,1.84-7.346,4.71
				l-11.849,25.805h-4.673c-3.114,0-5.951,1.788-7.294,4.598l-19.36,40.505h-8.457c-3.149-16.185-17.425-28.442-34.516-28.442
				s-31.367,12.258-34.515,28.442H30.638C13.744,369.112,0,382.855,0,399.747c0,16.894,13.744,30.638,30.638,30.638H80.7v14.236
				c0,15.162,12.335,27.497,27.499,27.497h239.782h53.536h15.795c6.247,0,11.331,5.082,11.331,11.329v20.469
				c0,4.466,3.618,8.084,8.084,8.084c4.466,0,8.084-3.618,8.084-8.084v-20.469c0-15.162-12.335-27.497-27.499-27.497h-15.795
				h-53.536H108.199c-6.247,0-11.331-5.082-11.331-11.329v-14.236h36.971c4.466,0,8.084-3.618,8.084-8.084
				c0-4.466-3.618-8.084-8.084-8.084H96.868v-5.873c0-4.466-3.618-8.084-8.084-8.084c-4.466,0-8.084,3.618-8.084,8.084v5.873H30.638
				c-7.979,0-14.47-6.49-14.47-14.47c0-7.976,6.49-14.467,14.47-14.467h31.16h54.101h21.019h238.164h106.28
				c7.979,0,14.47,6.49,14.47,14.467c0,7.979-6.49,14.47-14.47,14.47h-323.09c-4.466,0-8.084,3.619-8.084,8.084
				c0,4.466,3.619,8.084,8.084,8.084h323.09c16.894,0,30.638-13.744,30.638-30.638C512,382.855,498.256,369.112,481.362,369.112z
				 M71.077,369.112c2.722-7.166,9.66-12.274,17.769-12.274s15.05,5.107,17.771,12.274H71.077z M181.064,91.106
				c0-41.32,33.616-74.937,74.936-74.937s74.936,33.617,74.936,74.937c0,34.808-23.857,64.147-56.078,72.53
				c-0.151,0.039-0.303,0.075-0.455,0.113c-0.908,0.231-1.825,0.439-2.745,0.635c-0.334,0.071-0.668,0.143-1.003,0.21
				c-0.762,0.152-1.53,0.284-2.3,0.412c-0.82,0.135-1.643,0.255-2.467,0.364c-0.513,0.068-1.026,0.139-1.542,0.196
				c-0.694,0.077-1.389,0.137-2.085,0.195c-0.358,0.03-0.716,0.057-1.076,0.082c-0.744,0.051-1.487,0.096-2.232,0.125
				c-0.208,0.009-0.418,0.01-0.626,0.016c-1.551,0.047-3.102,0.047-4.653,0c-0.208-0.006-0.418-0.008-0.626-0.016
				c-0.745-0.029-1.489-0.074-2.232-0.125c-0.359-0.025-0.718-0.052-1.076-0.082c-0.696-0.057-1.392-0.119-2.085-0.195
				c-0.516-0.057-1.029-0.128-1.542-0.196c-0.825-0.108-1.647-0.229-2.467-0.364c-0.77-0.128-1.538-0.26-2.3-0.412
				c-0.335-0.066-0.669-0.139-1.004-0.21c-0.921-0.196-1.838-0.405-2.745-0.635c-0.152-0.038-0.303-0.074-0.455-0.113
				C204.921,155.252,181.064,125.914,181.064,91.106z M239.323,180.686c0.567,0.105,1.139,0.182,1.708,0.275
				c0.566,0.094,1.131,0.191,1.701,0.274c0.848,0.124,1.7,0.225,2.552,0.326c0.635,0.074,1.269,0.156,1.908,0.218
				c0.797,0.077,1.595,0.127,2.394,0.182c0.687,0.049,1.371,0.108,2.062,0.14c0.859,0.041,1.719,0.048,2.579,0.066
				c0.592,0.012,1.178,0.045,1.773,0.045c0.595,0,1.181-0.033,1.773-0.045c0.86-0.016,1.72-0.025,2.579-0.066
				c0.691-0.032,1.374-0.093,2.062-0.14c0.799-0.056,1.597-0.107,2.394-0.182c0.639-0.061,1.272-0.143,1.908-0.218
				c0.853-0.1,1.704-0.202,2.552-0.326c0.569-0.083,1.134-0.18,1.701-0.274c0.57-0.094,1.144-0.17,1.712-0.276v112.807h-33.36
				V180.686z M149.742,369.112l13.829-28.935h116.142c4.466,0,8.084-3.619,8.084-8.084c0-4.465-3.619-8.084-8.084-8.084H180.94
				l6.588-14.347h43.709h49.528h43.709l6.588,14.347h-27.095c-4.466,0-8.084,3.62-8.084,8.084c0,4.466,3.619,8.084,8.084,8.084
				h39.677c0.011,0,0.021,0.002,0.03,0.002c0.014,0,0.027-0.002,0.041-0.002h4.714l13.829,28.935H149.742z"/>
			<path d="M274.449,51.739c15.108,7.124,24.868,22.513,24.868,39.205c0,8.682-2.556,17.056-7.392,24.214
				c-2.499,3.699-1.526,8.724,2.174,11.224c1.387,0.938,2.961,1.386,4.517,1.386c2.594,0,5.144-1.247,6.707-3.56
				c6.648-9.841,10.163-21.344,10.163-33.265c0-22.92-13.401-44.049-34.14-53.83c-4.039-1.905-8.856-0.176-10.76,3.864
				C268.682,45.017,270.411,49.834,274.449,51.739z"/>
		</g>
	</g>
</g>
</svg>