<?xml version="1.0" encoding="iso-8859-1"?>
<!-- Uploaded to: SVG Repo, www.svgrepo.com, Generator: SVG Repo Mixer Tools -->
<svg fill="#000000" height="800px" width="800px" version="1.1" id="Layer_1" xmlns="http://www.w3.org/2000/svg" xmlns:xlink="http://www.w3.org/1999/xlink" 
	 viewBox="0 0 512 512" xml:space="preserve">
<g>
	<g>
		<g>
			<path d="M257.515,246.188c-29.326,0-53.184,23.858-53.184,53.184c0,29.326,23.858,53.185,53.184,53.185
				c29.326,0,53.184-23.859,53.184-53.185C310.7,270.046,286.842,246.188,257.515,246.188z M257.515,336.389
				c-20.411,0-37.016-16.605-37.016-37.017c0-20.411,16.605-37.016,37.016-37.016c20.411,0,37.016,16.605,37.016,37.016
				C294.531,319.784,277.927,336.389,257.515,336.389z"/>
			<path d="M342.409,356.9c-3.521-2.745-8.601-2.116-11.346,1.406c-0.652,0.836-1.318,1.663-1.998,2.478
				c-2.86,3.429-2.401,8.526,1.028,11.386c1.511,1.261,3.348,1.877,5.175,1.877c2.314,0,4.612-0.988,6.212-2.905
				c0.793-0.952,1.573-1.917,2.335-2.895C346.56,364.725,345.931,359.645,342.409,356.9z"/>
			<path d="M315.075,204.485c-3.777-2.381-8.769-1.251-11.15,2.527c-2.382,3.777-1.25,8.769,2.527,11.15
				c28.078,17.706,44.841,48.064,44.841,81.212c0,14.272-3.056,28.002-9.082,40.804c-1.901,4.04-0.167,8.856,3.872,10.757
				c1.112,0.523,2.284,0.772,3.437,0.772c3.033,0,5.942-1.717,7.32-4.644c7.047-14.974,10.622-31.019,10.622-47.69
				C367.461,260.64,347.878,225.168,315.075,204.485z"/>
			<path d="M317.017,81.756c-43.201,0-78.713,33.449-82.059,75.806c-69.109,10.208-122.318,69.909-122.318,141.81
				c0,79.05,64.31,143.36,143.36,143.36s143.36-64.31,143.36-143.36c0-28.775-8.529-55.594-23.182-78.072
				c14.797-15.302,23.182-35.765,23.182-57.203C399.36,118.695,362.421,81.756,317.017,81.756z M383.192,299.371
				c0,70.135-57.058,127.193-127.192,127.193s-127.192-57.058-127.192-127.192c0-66.136,50.742-120.636,115.339-126.633
				c0.888-0.082,1.776-0.158,2.665-0.222c0.232-0.017,0.465-0.029,0.697-0.044c0.89-0.059,1.782-0.111,2.672-0.152
				c0.266-0.012,0.534-0.021,0.801-0.03c0.853-0.033,1.704-0.06,2.556-0.077c0.3-0.005,0.6-0.008,0.901-0.012
				c0.829-0.01,1.658-0.014,2.487-0.008c0.299,0.002,0.597,0.008,0.896,0.011c0.847,0.012,1.694,0.031,2.541,0.06
				c0.26,0.009,0.521,0.019,0.78,0.029c0.891,0.036,1.783,0.08,2.674,0.135c0.218,0.013,0.434,0.027,0.652,0.041
				c0.929,0.061,1.857,0.134,2.785,0.214c0.191,0.017,0.383,0.033,0.573,0.051c0.924,0.085,1.847,0.182,2.771,0.288
				C333.881,180.289,383.192,234.176,383.192,299.371z M280.493,158.115c2.869-17.575,18.152-31.034,36.526-31.034
				c20.411,0,37.016,16.605,37.016,37.016c0,8.639-3.015,16.897-8.415,23.469C327.107,172.699,304.844,162.324,280.493,158.115z
				 M366.481,208.026c-2.779-3.356-5.712-6.588-8.782-9.68c8.026-9.521,12.504-21.603,12.504-34.247
				c0-29.326-23.858-53.184-53.184-53.184c-26.664,0-48.808,19.724-52.609,45.348c-0.101-0.006-0.202-0.009-0.303-0.014
				c-0.673-0.038-1.347-0.068-2.022-0.096c-0.538-0.023-1.076-0.044-1.613-0.061c-0.548-0.017-1.097-0.03-1.646-0.041
				c-0.668-0.013-1.338-0.022-2.007-0.026c-0.274-0.001-0.545-0.011-0.819-0.011c-0.209,0-0.417,0.008-0.626,0.008
				c-0.682,0.003-1.366,0.013-2.048,0.026c-0.517,0.01-1.036,0.018-1.552,0.033c-0.15,0.004-0.297,0.004-0.447,0.01
				c3.966-32.725,31.913-58.166,65.691-58.166c36.489,0,66.174,29.685,66.174,66.174
				C383.192,180.38,377.186,195.979,366.481,208.026z"/>
			<path d="M437.163,63.596c4.466,0,8.084-3.619,8.084-8.084V26.214C445.247,11.76,433.487,0,419.033,0H92.967
				C78.513,0,66.753,11.76,66.753,26.214v17.44v148.75v262.934c0,14.456,11.76,26.216,26.214,26.216h1.887v22.362
				c0,4.466,3.619,8.084,8.084,8.084h54.973c4.466,0,8.084-3.618,8.084-8.084v-22.362h180.008v22.362
				c0,4.466,3.618,8.084,8.084,8.084h54.973c4.466,0,8.084-3.618,8.084-8.084v-22.362h1.887c14.455,0,26.214-11.76,26.214-26.216
				V79.225c0-4.466-3.618-8.084-8.084-8.084c-4.466,0-8.084,3.619-8.084,8.084v376.113c0,5.54-4.507,10.047-10.046,10.047h-9.972
				h-54.973H157.912h-54.973h-9.972c-5.54,0-10.046-4.508-10.046-10.047v-254.85h27.052c4.466,0,8.084-3.618,8.084-8.084V43.655
				c0-4.466-3.618-8.084-8.084-8.084H82.921v-9.356c0-5.54,4.507-10.046,10.046-10.046h326.065c5.54,0,10.046,4.507,10.046,10.046
				v29.297C429.079,59.977,432.698,63.596,437.163,63.596z M362.173,481.554h38.804v14.278h-38.804V481.554z M111.023,481.554
				h38.804v14.278h-38.804V481.554z M101.888,51.739V184.32H82.921V51.739H101.888z"/>
		</g>
	</g>
</g>
</svg>